<svg width="20" height="20" fill="none" xmlns="http://www.w3.org/2000/svg" viewBox="0 0 24 24" id="youtube-brands"><path d="M23.498 6.203a3.016 3.016 0 00-2.121-2.136C19.505 3.562 12 3.562 12 3.562s-7.505 0-9.377.505A3.016 3.016 0 00.502 6.203C0 8.087 0 12.017 0 12.017s0 3.93.502 5.814a2.97 2.97 0 002.121 2.102c1.872.505 9.377.505 9.377.505s7.505 0 9.377-.505a2.97 2.97 0 002.122-2.102C24 15.947 24 12.017 24 12.017s0-3.93-.502-5.814zM9.546 15.585V8.45l6.273 3.568-6.273 3.569z" fill="#fff"></path></svg>
